<?xml version="1.0" encoding="utf-8"?>

<!-- Generator: Adobe Illustrator 16.0.0, SVG Export Plug-In . SVG Version: 6.00 Build 0)  -->

<!DOCTYPE svg PUBLIC "-//W3C//DTD SVG 1.1//EN" "http://www.w3.org/Graphics/SVG/1.1/DTD/svg11.dtd">

<svg version="1.1" id="Layer_1" xmlns="http://www.w3.org/2000/svg" xmlns:xlink="http://www.w3.org/1999/xlink" x="0px" y="0px"

	 width="693px" height="322px" viewBox="0 0 693 322" enable-background="new 0 0 693 322" xml:space="preserve">

<g id="Backgrounds">

	<rect x="-0.493" y="2.117" fill="#5F516D" width="693.494" height="322"/>

	<rect x="4.161" y="8.972" fill="#5F516D" width="685.637" height="213.23"/>

</g>

<g id="svg2" xmlns:cc="http://creativecommons.org/ns#" xmlns:rdf="http://www.w3.org/1999/02/22-rdf-syntax-ns#" xmlns:dc="http://purl.org/dc/elements/1.1/" xmlns:svg="http://www.w3.org/2000/svg">

	<path id="path11" fill="#9780AA" d="M14.636,67.629h23.97c1.199,0,3.595,1.199,3.595,3.595v20.375c0,2.396-2.396,3.594-3.595,3.594

		h-23.97c-2.398,0-3.597-1.199-3.597-3.594V71.224C11.04,68.827,12.238,67.629,14.636,67.629z"/>

	<path id="path13" fill="#9780AA" d="M50.591,67.629h23.972c2.396,0,3.595,1.199,3.595,3.595v20.375

		c0,2.396-1.198,3.594-3.595,3.594H50.591c-2.396,0-3.594-1.199-3.594-3.594V71.224C46.995,68.827,48.192,67.629,50.591,67.629z"/>

	<path id="path15" fill="#9780AA" d="M85.347,67.629h23.969c2.398,0,3.596,1.199,3.596,3.595v20.375

		c0,2.396-1.197,3.594-3.596,3.594H85.347c-1.199,0-2.397-1.199-2.397-3.594V71.224C82.95,68.827,84.148,67.629,85.347,67.629z"/>

	<path id="path17" fill="#9780AA" d="M121.302,67.629h23.97c2.396,0,3.595,1.199,3.595,3.595v20.375

		c0,2.396-1.199,3.594-3.595,3.594h-23.97c-2.397,0-3.597-1.199-3.597-3.594V71.224C117.706,68.827,118.905,67.629,121.302,67.629z"

		/>

	<path id="path19" fill="#9780AA" d="M157.257,67.629h23.971c2.396,0,3.595,1.199,3.595,3.595v20.375

		c0,2.396-1.199,3.594-3.595,3.594h-23.971c-1.198,0-3.596-1.199-3.596-3.594V71.224C153.661,68.827,156.058,67.629,157.257,67.629z

		"/>

	<path id="path21" fill="#9780AA" d="M193.212,67.629h22.772c2.396,0,3.595,1.199,3.595,3.595v20.375

		c0,2.396-1.199,3.594-3.595,3.594h-22.772c-1.198,0-3.595-1.199-3.595-3.594V71.224C189.617,68.827,192.013,67.629,193.212,67.629z

		"/>

	<path id="path23" fill="#9780AA" d="M227.969,67.629h23.97c2.396,0,3.594,1.199,3.594,3.595v20.375

		c0,2.396-1.197,3.594-3.594,3.594h-23.97c-1.199,0-3.596-1.199-3.596-3.594V71.224C224.373,68.827,226.769,67.629,227.969,67.629z"

		/>

	<path id="path25" fill="#9780AA" d="M263.923,67.629h23.973c2.396,0,3.595,1.199,3.595,3.595v20.375

		c0,2.396-1.199,3.594-3.595,3.594h-23.973c-1.197,0-3.595-1.199-3.595-3.594V71.224C260.328,68.827,262.725,67.629,263.923,67.629z

		"/>

	<path id="path27" fill="#9780AA" d="M299.878,67.629h22.771c2.396,0,3.596,1.199,3.596,3.595v20.375

		c0,2.396-1.199,3.594-3.596,3.594h-22.771c-1.198,0-3.596-1.199-3.596-3.594V71.224C296.283,68.827,298.68,67.629,299.878,67.629z"

		/>

	<path id="path29" fill="#9780AA" d="M334.635,67.629h23.969c2.396,0,3.595,1.199,3.595,3.595v20.375

		c0,2.396-1.199,3.594-3.595,3.594h-23.969c-1.199,0-3.598-1.199-3.598-3.594V71.224C331.038,68.827,333.436,67.629,334.635,67.629z

		"/>

	<path id="path31" fill="#9780AA" d="M370.589,67.629h23.973c2.396,0,3.595,1.199,3.595,3.595v20.375

		c0,2.396-1.198,3.594-3.595,3.594h-23.973c-1.198,0-3.596-1.199-3.596-3.594V71.224C366.993,68.827,369.391,67.629,370.589,67.629z

		"/>

	<path id="path33" fill="#9780AA" d="M406.544,67.629h23.971c1.198,0,2.396,1.199,2.396,3.595v20.375

		c0,2.396-1.198,3.594-2.396,3.594h-23.971c-1.198,0-3.595-1.199-3.595-3.594V71.224C402.949,68.827,405.345,67.629,406.544,67.629z

		"/>

	<path id="path35" fill="#9780AA" d="M441.301,67.629h23.971c2.396,0,3.596,1.199,3.596,3.595v20.375

		c0,2.396-1.199,3.594-3.596,3.594h-23.971c-1.199,0-2.398-1.199-2.398-3.594V71.224C438.903,68.827,440.102,67.629,441.301,67.629z

		"/>

	<path id="path37" fill="#9780AA" d="M477.254,67.629h23.973c2.396,0,3.596,1.199,3.596,3.595v20.375

		c0,2.396-1.199,3.594-3.596,3.594h-23.973c-1.195,0-2.395-1.199-2.395-3.594V71.224C474.86,68.827,476.059,67.629,477.254,67.629z"

		/>

	<path id="path39" fill="#9780AA" d="M513.211,67.629h23.969c2.398,0,3.596,1.199,3.596,3.595v20.375

		c0,2.396-1.197,3.594-3.596,3.594h-23.969c-1.199,0-2.398-1.199-2.398-3.594V71.224C510.813,68.827,512.012,67.629,513.211,67.629z

		"/>

	<path id="path41" fill="#9780AA" d="M72.164,97.591h22.771c2.396,0,3.595,1.199,3.595,3.596v21.572

		c0,1.199-1.198,3.596-3.595,3.596H72.163c-1.198,0-3.595-2.397-3.595-3.596v-21.572C68.568,98.789,70.965,97.591,72.164,97.591z"/>

	<path id="path43" fill="#9780AA" d="M106.92,97.591h23.97c2.396,0,3.597,1.199,3.597,3.596v21.572c0,1.199-1.199,3.596-3.597,3.596

		h-23.97c-1.198,0-3.596-2.397-3.596-3.596v-21.572C103.324,98.789,105.721,97.591,106.92,97.591z"/>

	<path id="path45" fill="#9780AA" d="M142.875,97.591h23.972c2.396,0,3.594,1.199,3.594,3.596v21.572

		c0,1.199-1.198,3.596-3.594,3.596h-23.972c-1.197,0-3.596-2.397-3.596-3.596v-21.572C139.279,98.789,141.677,97.591,142.875,97.591

		z"/>

	<path id="path47" fill="#9780AA" d="M178.829,97.591h22.773c2.396,0,3.595,1.199,3.595,3.596v21.572

		c0,1.199-1.198,3.596-3.595,3.596h-22.773c-1.199,0-3.594-2.397-3.594-3.596v-21.572C175.234,98.789,177.63,97.591,178.829,97.591z

		"/>

	<path id="path49" fill="#9780AA" d="M213.586,97.591h23.972c2.396,0,3.596,1.199,3.596,3.596v21.572

		c0,1.199-1.199,3.596-3.596,3.596h-23.972c-1.197,0-2.396-2.397-2.396-3.596v-21.572C211.19,98.789,212.388,97.591,213.586,97.591z

		"/>

	<path id="path51" fill="#9780AA" d="M249.541,97.591h23.972c2.396,0,3.595,1.199,3.595,3.596v21.572

		c0,1.199-1.198,3.596-3.595,3.596h-23.972c-1.197,0-2.396-2.397-2.396-3.596v-21.572C247.143,98.789,248.344,97.591,249.541,97.591

		z"/>

	<path id="path53" fill="#9780AA" d="M285.496,97.591h23.971c2.396,0,3.596,1.199,3.596,3.596v21.572

		c0,1.199-1.199,3.596-3.596,3.596h-23.971c-1.198,0-2.396-2.397-2.396-3.596v-21.572C283.099,98.789,284.298,97.591,285.496,97.591

		z"/>

	<path id="path55" fill="#9780AA" d="M320.251,97.591h23.972c2.396,0,3.597,1.199,3.597,3.596v21.572

		c0,1.199-1.199,3.596-3.597,3.596h-23.972c-1.198,0-2.395-2.397-2.395-3.596v-21.572C317.856,98.789,319.052,97.591,320.251,97.591

		z"/>

	<path id="path57" fill="#9780AA" d="M356.207,97.591h23.971c2.396,0,3.595,1.199,3.595,3.596v21.572

		c0,1.199-1.198,3.596-3.595,3.596h-23.971c-1.197,0-2.396-2.397-2.396-3.596v-21.572C353.81,98.789,355.01,97.591,356.207,97.591z"

		/>

	<path id="path59" fill="#9780AA" d="M392.162,97.591h23.97c2.397,0,3.596,1.199,3.596,3.596v21.572

		c0,1.199-1.198,3.596-3.596,3.596h-23.97c-1.198,0-2.396-2.397-2.396-3.596v-21.572C389.766,98.789,390.963,97.591,392.162,97.591z

		"/>

	<path id="path61" fill="#9780AA" d="M428.118,97.591h22.771c2.396,0,3.596,1.199,3.596,3.596v21.572

		c0,1.199-1.199,3.596-3.596,3.596h-22.771c-1.199,0-2.397-2.397-2.397-3.596v-21.572C425.72,98.789,426.919,97.591,428.118,97.591z

		"/>

	<path id="path63" fill="#9780AA" d="M462.873,97.591h23.971c2.396,0,3.594,1.199,3.594,3.596v21.572

		c0,1.199-1.197,3.596-3.594,3.596h-23.971c-1.197,0-2.396-2.397-2.396-3.596v-21.572C460.477,98.789,461.676,97.591,462.873,97.591

		z"/>

	<path id="path65" fill="#9780AA" d="M81.752,128.752h22.771c1.198,0,3.595,1.198,3.595,2.397v22.771

		c0,1.198-2.396,2.397-3.595,2.397H81.752c-2.397,0-3.596-1.199-3.596-2.397v-22.771C78.156,129.95,79.354,128.752,81.752,128.752z"

		/>

	<path id="path67" fill="#9780AA" d="M116.509,128.752h23.97c1.199,0,3.595,1.198,3.595,2.397v22.771

		c0,1.198-2.396,2.397-3.595,2.397h-23.97c-2.397,0-3.595-1.199-3.595-2.397v-22.771C112.912,129.95,114.11,128.752,116.509,128.752

		z"/>

	<path id="path69" fill="#9780AA" d="M152.462,128.752h23.972c2.396,0,3.595,1.198,3.595,2.397v22.771

		c0,1.198-1.199,2.397-3.595,2.397h-23.972c-2.396,0-3.594-1.199-3.594-2.397v-22.771

		C148.868,129.95,150.066,128.752,152.462,128.752z"/>

	<path id="path71" fill="#9780AA" d="M188.418,128.752h22.772c2.396,0,3.595,1.198,3.595,2.397v22.771

		c0,1.198-1.199,2.397-3.595,2.397h-22.772c-2.396,0-3.595-1.199-3.595-2.397v-22.771

		C184.823,129.95,186.021,128.752,188.418,128.752z"/>

	<path id="path73" fill="#9780AA" d="M223.175,128.752h23.971c2.396,0,3.594,1.198,3.594,2.397v22.771

		c0,1.198-1.198,2.397-3.594,2.397h-23.971c-2.397,0-3.596-1.199-3.596-2.397v-22.771

		C219.579,129.95,220.777,128.752,223.175,128.752z"/>

	<path id="path75" fill="#9780AA" d="M259.129,128.752h23.973c2.396,0,3.595,1.198,3.595,2.397v22.771

		c0,1.198-1.199,2.397-3.595,2.397h-23.973c-1.197,0-3.595-1.199-3.595-2.397v-22.771

		C255.534,129.95,257.931,128.752,259.129,128.752z"/>

	<path id="path77" fill="#9780AA" d="M295.084,128.752h22.772c2.396,0,3.595,1.198,3.595,2.397v22.771

		c0,1.198-1.199,2.397-3.595,2.397h-22.772c-1.198,0-3.595-1.199-3.595-2.397v-22.771

		C291.489,129.95,293.885,128.752,295.084,128.752z"/>

	<path id="path79" fill="#9780AA" d="M329.842,128.752h23.971c2.396,0,3.594,1.198,3.594,2.397v22.771

		c0,1.198-1.198,2.397-3.594,2.397h-23.972c-1.198,0-3.595-1.199-3.595-2.397v-22.771

		C326.245,129.95,328.642,128.752,329.842,128.752z"/>

	<path id="path81" fill="#9780AA" d="M365.794,128.752h23.973c2.396,0,3.595,1.198,3.595,2.397v22.771

		c0,1.198-1.198,2.397-3.595,2.397h-23.973c-1.197,0-3.595-1.199-3.595-2.397v-22.771

		C362.199,129.95,364.596,128.752,365.794,128.752z"/>

	<path id="path83" fill="#9780AA" d="M401.749,128.752h23.972c2.397,0,3.596,1.198,3.596,2.397v22.771

		c0,1.198-1.198,2.397-3.596,2.397h-23.972c-1.198,0-3.596-1.199-3.596-2.397v-22.771

		C398.154,129.95,400.552,128.752,401.749,128.752z"/>

	<path id="path85" fill="#9780AA" d="M436.506,128.752h23.971c2.396,0,3.594,1.198,3.594,2.397v22.771

		c0,1.198-1.197,2.397-3.594,2.397h-23.971c-1.197,0-3.595-1.199-3.595-2.397v-22.771

		C432.912,129.95,435.309,128.752,436.506,128.752z"/>

	<path id="path87" fill="#9780AA" d="M93.736,158.715h25.17c1.199,0,2.397,2.397,2.397,3.595v20.375

		c0,2.397-1.198,3.596-2.397,3.596h-25.17c-1.198,0-2.396-1.198-2.396-3.596V162.31C91.341,161.11,92.537,158.715,93.736,158.715z"

		/>

	<path id="path89" fill="#9780AA" d="M129.691,158.715h25.169c1.199,0,2.397,2.397,2.397,3.595v20.375

		c0,2.397-1.198,3.596-2.397,3.596h-25.169c-1.198,0-2.396-1.198-2.396-3.596V162.31

		C127.294,161.11,128.493,158.715,129.691,158.715z"/>

	<path id="path91" fill="#9780AA" d="M165.646,158.715h25.168c1.199,0,2.397,2.397,2.397,3.595v20.375

		c0,2.397-1.198,3.596-2.397,3.596h-25.168c-1.197,0-2.396-1.198-2.396-3.596V162.31

		C163.249,161.11,164.449,158.715,165.646,158.715z"/>

	<path id="path93" fill="#9780AA" d="M237.556,158.715h23.971c1.198,0,2.396,2.397,2.396,3.595v20.375

		c0,2.397-1.197,3.596-2.396,3.596h-23.971c-2.396,0-3.596-1.198-3.596-3.596V162.31C233.96,161.11,235.16,158.715,237.556,158.715z

		"/>

	<path id="path95" fill="#9780AA" d="M273.511,158.715h23.969c1.199,0,2.397,2.397,2.397,3.595v20.375

		c0,2.397-1.198,3.596-2.397,3.596h-23.969c-2.396,0-3.597-1.198-3.597-3.596V162.31

		C269.915,161.11,271.115,158.715,273.511,158.715z"/>

	<path id="path97" fill="#9780AA" d="M309.467,158.715h22.771c1.199,0,2.398,2.397,2.398,3.595v20.375

		c0,2.397-1.199,3.596-2.398,3.596h-22.771c-2.396,0-3.595-1.198-3.595-3.596V162.31

		C305.871,161.11,307.069,158.715,309.467,158.715z"/>

	<path id="path99" fill="#9780AA" d="M344.222,158.715h23.971c1.198,0,2.396,2.397,2.396,3.595v20.375

		c0,2.397-1.198,3.596-2.396,3.596h-23.971c-2.396,0-3.597-1.198-3.597-3.596V162.31

		C340.626,161.11,341.826,158.715,344.222,158.715z"/>

	<path id="path101" fill="#9780AA" d="M380.177,158.715h23.97c1.199,0,2.396,2.397,2.396,3.595v20.375

		c0,2.397-1.197,3.596-2.396,3.596h-23.97c-2.396,0-3.596-1.198-3.596-3.596V162.31C376.582,161.11,377.781,158.715,380.177,158.715

		z"/>

	<path id="path103" fill="#9780AA" d="M416.134,158.715h22.771c1.199,0,2.398,2.397,2.398,3.595v20.375

		c0,2.397-1.199,3.596-2.398,3.596h-22.771c-2.397,0-3.597-1.198-3.597-3.596V162.31

		C412.536,161.11,413.734,158.715,416.134,158.715z"/>

	<path id="path105" fill="#9780AA" d="M14.636,18.49h23.97c1.199,0,3.595,1.199,3.595,3.595v21.573c0,1.199-2.396,3.596-3.595,3.596

		h-23.97c-2.398,0-3.597-2.398-3.597-3.596V22.085C11.04,19.688,12.238,18.49,14.636,18.49z"/>

	<path id="path107" fill="#9780AA" d="M85.347,18.49h23.969c2.398,0,3.596,1.199,3.596,3.595v21.573

		c0,1.199-1.197,3.596-3.596,3.596H85.347c-1.199,0-2.397-2.398-2.397-3.596V22.085C82.95,19.688,84.148,18.49,85.347,18.49z"/>

	<path id="path109" fill="#9780AA" d="M121.302,18.49h23.97c2.396,0,3.595,1.199,3.595,3.595v21.573

		c0,1.199-1.199,3.596-3.595,3.596h-23.97c-2.397,0-3.597-2.398-3.597-3.596V22.085C117.706,19.688,118.905,18.49,121.302,18.49z"/>

	<path id="path111" fill="#9780AA" d="M157.257,18.49h23.971c2.396,0,3.595,1.199,3.595,3.595v21.573

		c0,1.199-1.199,3.596-3.595,3.596h-23.971c-1.198,0-3.596-2.398-3.596-3.596V22.085C153.661,19.688,156.058,18.49,157.257,18.49z"

		/>

	<path id="path113" fill="#9780AA" d="M193.212,18.49h22.772c2.396,0,3.595,1.199,3.595,3.595v21.573

		c0,1.199-1.199,3.596-3.595,3.596h-22.772c-1.198,0-3.595-2.398-3.595-3.596V22.085C189.617,19.688,192.013,18.49,193.212,18.49z"

		/>

	<path id="path115" fill="#9780AA" d="M245.946,17.29h23.969c1.199,0,2.397,2.397,2.397,3.597V42.46

		c0,2.397-1.198,3.596-2.397,3.596h-23.969c-2.398,0-3.596-1.199-3.596-3.596V20.887C242.35,19.688,243.548,17.29,245.946,17.29z"/>

	<path id="path117" fill="#9780AA" d="M281.902,17.29h23.97c1.198,0,2.397,2.397,2.397,3.597V42.46c0,2.397-1.199,3.596-2.397,3.596

		h-23.97c-2.397,0-3.596-1.199-3.596-3.596V20.887C278.306,19.688,279.504,17.29,281.902,17.29z"/>

	<path id="path119" fill="#9780AA" d="M316.657,17.29h23.969c1.199,0,2.398,2.397,2.398,3.597V42.46

		c0,2.397-1.199,3.596-2.398,3.596h-23.969c-1.199,0-2.396-1.199-2.396-3.596V20.887C314.261,19.688,315.458,17.29,316.657,17.29z"

		/>

	<path id="path121" fill="#9780AA" d="M352.612,17.29h23.97c1.199,0,2.397,2.397,2.397,3.597V42.46c0,2.397-1.198,3.596-2.397,3.596

		h-23.97c-2.396,0-3.595-1.199-3.595-3.596V20.887C349.016,19.688,350.216,17.29,352.612,17.29z"/>

	<path id="path123" fill="#9780AA" d="M405.345,17.29h23.971c1.198,0,2.396,2.397,2.396,3.597V42.46

		c0,2.397-1.198,3.596-2.396,3.596h-23.971c-2.396,0-3.596-1.199-3.596-3.596V20.887C401.749,19.688,402.949,17.29,405.345,17.29z"

		/>

	<path id="path125" fill="#9780AA" d="M440.102,17.29h23.969c1.199,0,2.398,2.397,2.398,3.597V42.46

		c0,2.397-1.199,3.596-2.398,3.596h-23.969c-2.396,0-3.596-1.199-3.596-3.596V20.887C436.506,19.688,437.705,17.29,440.102,17.29z"

		/>

	<path id="path127" fill="#9780AA" d="M476.059,17.29h23.969c1.199,0,2.396,2.397,2.396,3.597V42.46

		c0,2.397-1.197,3.596-2.396,3.596h-23.969c-2.398,0-3.598-1.199-3.598-3.596V20.887C472.461,19.688,473.66,17.29,476.059,17.29z"/>

	<path id="path129" fill="#9780AA" d="M512.012,17.29h23.971c1.197,0,2.396,2.397,2.396,3.597V42.46

		c0,2.397-1.199,3.596-2.396,3.596h-23.971c-2.396,0-3.596-1.199-3.596-3.596V20.887C508.416,19.688,509.615,17.29,512.012,17.29z"

		/>

	<path id="path149" fill="#CCCCCC" d="M582.725,188.676h23.969c1.199,0,2.396,1.199,2.396,2.396v22.771

		c0,1.2-1.197,2.398-2.396,2.398h-23.969c-2.398,0-3.598-1.198-3.598-2.398v-22.771

		C579.127,189.875,580.326,188.676,582.725,188.676z"/>

	<path id="path151" fill="#CCCCCC" d="M618.68,188.676h23.969c1.199,0,2.396,1.199,2.396,2.396v22.771

		c0,1.2-1.197,2.398-2.396,2.398H618.68c-2.398,0-3.598-1.198-3.598-2.398v-22.771C615.082,189.875,616.281,188.676,618.68,188.676z

		"/>

	<path id="path153" fill="#CCCCCC" d="M654.633,188.676h22.773c1.197,0,2.396,1.199,2.396,2.396v22.771

		c0,1.2-1.199,2.398-2.396,2.398h-22.771c-2.398,0-3.596-1.198-3.596-2.398v-22.771

		C651.037,189.875,652.237,188.676,654.633,188.676z"/>

	<path id="path155" fill="#CCCCCC" d="M618.68,158.715h23.969c1.199,0,2.396,1.198,2.396,3.595v20.375

		c0,1.197-1.197,3.596-2.396,3.596H618.68c-2.398,0-3.598-2.398-3.598-3.596V162.31C615.082,159.913,616.281,158.715,618.68,158.715

		z"/>

	<path id="path185" fill="#9780AA" d="M152.462,188.676h-13.184c-2.396,0-3.595,1.199-3.595,3.595v21.572

		c0,2.398,1.199,3.598,3.595,3.598h13.183h201.349h21.574c0,0,1.197-1.199,1.197-3.598v-21.572c0-2.396-1.197-3.595-1.197-3.595

		h-21.574H152.462z"/>

	<path id="path187" fill="#9780AA" d="M426.919,188.676h22.773c1.197,0,2.395,1.199,2.395,3.595v21.572

		c0,2.398-1.197,3.598-2.395,3.598h-22.773c-2.396,0-3.595-1.199-3.595-3.598v-21.572

		C423.324,189.875,424.523,188.676,426.919,188.676z"/>

	<path id="path189" fill="#9780AA" d="M461.676,188.676h23.969c1.199,0,2.398,1.199,2.398,3.595v21.572

		c0,2.398-1.199,3.598-2.398,3.598h-23.969c-2.398,0-3.596-1.199-3.596-3.598v-21.572

		C458.08,189.875,459.278,188.676,461.676,188.676z"/>

	<path id="path195" fill="#9780AA" d="M200.402,158.715h25.169c1.198,0,2.397,2.397,2.397,3.595v20.375

		c0,2.397-1.199,3.596-2.397,3.596h-25.169c0,0-1.198-1.198-1.198-3.596V162.31C199.204,161.11,200.402,158.715,200.402,158.715z"/>

	<path id="path197" fill="#9780AA" d="M14.636,126.354c-2.398,0-3.597-2.397-3.597-3.596v-21.572c0-2.397,1.198-3.596,3.597-3.596

		h45.542c2.396,0,3.595,1.199,3.595,3.596v21.572c0,1.199-1.198,3.596-3.595,3.596H14.636z"/>

	<path id="path199" fill="#9780AA" d="M14.636,156.317c-1.199,0-3.597-1.199-3.597-2.397v-22.771c0-1.199,2.397-2.398,3.597-2.398

		h53.932c2.396,0,4.793,1.199,4.793,2.398v22.771c0,1.198-2.396,2.397-4.793,2.397H14.636z"/>

	<g id="g201" transform="matrix(0.774557,0,0,0.77345,-210.373,-10.3173)">



			<text id="text203" transform="matrix(1.2929 0 0 1.2929 371.6555 166.1462)" fill="#2B2828" font-family="'MyriadPro-Regular'" font-size="16.6854">Q</text>

	</g>

	<g id="g205" transform="matrix(0.774557,0,0,0.77345,-182.661,-10.3173)">



			<text id="text207" transform="matrix(1.2929 0 0 1.2929 378.7581 166.1462)" fill="#2B2828" font-family="'MyriadPro-Regular'" font-size="16.6854">W</text>

	</g>

	<g id="g209" transform="matrix(0.774557,0,0,0.77345,-150,-10.3173)">



			<text id="text211" transform="matrix(1.2929 0 0 1.2929 387.1275 166.1462)" fill="#2B2828" font-family="'MyriadPro-Regular'" font-size="16.6854">E</text>

	</g>

	<g id="g213" transform="matrix(0.774557,0,0,0.77345,-121.298,-10.3173)">



			<text id="text215" transform="matrix(1.2929 0 0 1.2929 394.4832 166.1462)" fill="#2B2828" font-family="'MyriadPro-Regular'" font-size="16.6854">R</text>

	</g>

	<g id="g217" transform="matrix(0.774557,0,0,0.77345,-90.6165,-10.3173)">



			<text id="text219" transform="matrix(1.2929 0 0 1.2929 402.3457 166.1462)" fill="#2B2828" font-family="'MyriadPro-Regular'" font-size="16.6854">T</text>

	</g>

	<g id="g221" transform="matrix(0.774557,0,0,0.77345,-60.9247,-10.3173)">



			<text id="text223" transform="matrix(1.2929 0 0 1.2929 409.9554 166.1462)" fill="#2B2828" font-family="'MyriadPro-Regular'" font-size="16.6854">Y</text>

	</g>

	<g id="g225" transform="matrix(0.774557,0,0,0.77345,-31.2329,-10.3173)">



			<text id="text227" transform="matrix(1.2929 0 0 1.2929 417.5651 166.1462)" fill="#2B2828" font-family="'MyriadPro-Regular'" font-size="16.6854">U</text>

	</g>

	<g id="g229" transform="matrix(0.774557,0,0,0.77345,1.42831,-10.3173)">



			<text id="text231" transform="matrix(1.2929 0 0 1.2929 425.9354 166.1462)" fill="#2B2828" font-family="'MyriadPro-Regular'" font-size="16.6854">I</text>

	</g>

	<g id="g233" transform="matrix(0.774557,0,0,0.77345,27.1613,-10.3173)">



			<text id="text235" transform="matrix(1.2929 0 0 1.2929 432.5312 166.1462)" fill="#2B2828" font-family="'MyriadPro-Regular'" font-size="16.6854">O</text>

	</g>

	<g id="g237" transform="matrix(0.774557,0,0,0.77345,57.8426,-10.3173)">



			<text id="text239" transform="matrix(1.2929 0 0 1.2929 440.3928 166.1462)" fill="#2B2828" font-family="'MyriadPro-Regular'" font-size="16.6854">P</text>

	</g>

	<g id="g241" transform="matrix(0.774557,0,0,0.77345,-202.456,15.3789)">



			<text id="text243" transform="matrix(1.2929 0 0 1.2929 373.6834 172.739)" fill="#2B2828" font-family="'MyriadPro-Regular'" font-size="16.6854">A</text>

	</g>

	<g id="g245" transform="matrix(0.774557,0,0,0.77345,-171.774,15.3789)">



			<text id="text247" transform="matrix(1.2929 0 0 1.2929 381.546 172.7391)" fill="#2B2828" font-family="'MyriadPro-Regular'" font-size="16.6854">S</text>

	</g>

	<g id="g249" transform="matrix(0.774557,0,0,0.77345,-143.072,15.3789)">



			<text id="text251" transform="matrix(1.2929 0 0 1.2929 388.9023 172.7392)" fill="#2B2828" font-family="'MyriadPro-Regular'" font-size="16.6854">D</text>

	</g>

	<g id="g253" transform="matrix(0.774557,0,0,0.77345,-112.39,15.3789)">



			<text id="text255" transform="matrix(1.2929 0 0 1.2929 396.7667 172.7393)" fill="#2B2828" font-family="'MyriadPro-Regular'" font-size="16.6854">F</text>

	</g>

	<g id="g257" transform="matrix(0.774557,0,0,0.77345,-83.6883,15.3789)">



			<text id="text259" transform="matrix(1.2929 0 0 1.2929 404.1215 172.7393)" fill="#2B2828" font-family="'MyriadPro-Regular'" font-size="16.6854">G</text>

	</g>

	<g id="g261" transform="matrix(0.774557,0,0,0.77345,-53.9965,15.3789)">



			<text id="text263" transform="matrix(1.2929 0 0 1.2929 411.73 172.7394)" fill="#2B2828" font-family="'MyriadPro-Regular'" font-size="16.6854">H</text>

	</g>

	<g id="g265" transform="matrix(0.774557,0,0,0.77345,-22.3252,15.3789)">



			<text id="text267" transform="matrix(1.2929 0 0 1.2929 419.8477 172.7394)" fill="#2B2828" font-family="'MyriadPro-Regular'" font-size="16.6854">J</text>

	</g>

	<g id="g269" transform="matrix(0.774557,0,0,0.77345,5.38717,15.3789)">



			<text id="text271" transform="matrix(1.2929 0 0 1.2929 426.9505 172.7394)" fill="#2B2828" font-family="'MyriadPro-Regular'" font-size="16.6854">K</text>

	</g>

	<g id="g273" transform="matrix(0.774557,0,0,0.77345,36.0689,15.3789)">



			<text id="text275" transform="matrix(1.2929 0 0 1.2929 434.814 172.7394)" fill="#2B2828" font-family="'MyriadPro-Regular'" font-size="16.6854">L</text>

	</g>

	<g id="g277" transform="matrix(0.774557,0,0,0.77345,-190.579,40.0868)">



			<text id="text279" transform="matrix(1.2929 0 0 1.2929 376.7276 179.0822)" fill="#2B2828" font-family="'MyriadPro-Regular'" font-size="16.6854">Z</text>

	</g>

	<g id="g281" transform="matrix(0.774557,0,0,0.77345,-160.887,40.0868)">



			<text id="text283" transform="matrix(1.2929 0 0 1.2929 384.3376 179.0822)" fill="#2B2828" font-family="'MyriadPro-Regular'" font-size="16.6854">X</text>

	</g>

	<g id="g285" transform="matrix(0.774557,0,0,0.77345,-131.195,40.0868)">



			<text id="text287" transform="matrix(1.2929 0 0 1.2929 391.9458 179.0822)" fill="#2B2828" font-family="'MyriadPro-Regular'" font-size="16.6854">C</text>

	</g>

	<g id="g289" transform="matrix(0.774557,0,0,0.77345,-101.504,40.0868)">



			<text id="text291" transform="matrix(1.2929 0 0 1.2929 399.5552 179.0822)" fill="#2B2828" font-family="'MyriadPro-Regular'" font-size="16.6854">V</text>

	</g>

	<g id="g293" transform="matrix(0.774557,0,0,0.77345,-71.8117,40.0868)">



			<text id="text295" transform="matrix(1.2929 0 0 1.2929 407.1643 179.0822)" fill="#2B2828" font-family="'MyriadPro-Regular'" font-size="16.6854">B</text>

	</g>

	<g id="g297" transform="matrix(0.774557,0,0,0.77345,-42.1195,40.0868)">



			<text id="text299" transform="matrix(1.2929 0 0 1.2929 414.7747 179.0822)" fill="#2B2828" font-family="'MyriadPro-Regular'" font-size="16.6854">N</text>

	</g>

	<g id="g301" transform="matrix(0.774557,0,0,0.77345,-13.4176,40.0868)">



			<text id="text303" transform="matrix(1.2929 0 0 1.2929 422.1306 179.0822)" fill="#2B2828" font-family="'MyriadPro-Regular'" font-size="16.6854">M</text>

	</g>

	<path id="path305" fill="none" d="M630.662,177.892v-11.984"/>

	<path id="path309" fill="none" d="M630.662,195.868v13.185"/>

	<path id="path313" fill="none" d="M659.428,201.863h11.984"/>

	<path id="path317" fill="none" d="M600.699,201.863h-13.182"/>

	<g id="g419" transform="matrix(0.774557,0,0,0.77345,-198.497,-78.5109)">



			<text id="text421" transform="matrix(1.2929 0 0 1.2929 374.6977 148.6472)" fill="#2B2828" font-family="'MyriadPro-Regular'" font-size="12.0506">F1</text>

	</g>

	<g id="g423" transform="matrix(0.774557,0,0,0.77345,-169.794,-78.5109)">



			<text id="text425" transform="matrix(1.2929 0 0 1.2929 382.0534 148.6471)" fill="#2B2828" font-family="'MyriadPro-Regular'" font-size="12.0506">F2</text>

	</g>

	<g id="g427" transform="matrix(0.774557,0,0,0.77345,-140.103,-78.5109)">



			<text id="text429" transform="matrix(1.2929 0 0 1.2929 389.6635 148.6471)" fill="#2B2828" font-family="'MyriadPro-Regular'" font-size="12.0506">F3</text>

	</g>

	<g id="g431" transform="matrix(0.774557,0,0,0.77345,-110.411,-78.5109)">



			<text id="text433" transform="matrix(1.2929 0 0 1.2929 397.2729 148.6471)" fill="#2B2828" font-family="'MyriadPro-Regular'" font-size="12.0506">F4</text>

	</g>

	<g id="g435" transform="matrix(0.774557,0,0,0.77345,-65.8731,-78.5109)">



			<text id="text437" transform="matrix(1.2929 0 0 1.2929 408.6871 148.6471)" fill="#2B2828" font-family="'MyriadPro-Regular'" font-size="12.0506">F5</text>

	</g>

	<g id="g439" transform="matrix(0.774557,0,0,0.77345,-36.1812,-78.5109)">



			<text id="text441" transform="matrix(1.2929 0 0 1.2929 416.2942 148.6471)" fill="#2B2828" font-family="'MyriadPro-Regular'" font-size="12.0506">F6</text>

	</g>

	<g id="g443" transform="matrix(0.774557,0,0,0.77345,-6.48941,-78.5109)">



			<text id="text445" transform="matrix(1.2929 0 0 1.2929 423.9052 148.6471)" fill="#2B2828" font-family="'MyriadPro-Regular'" font-size="12.0506">F7</text>

	</g>

	<g id="g447" transform="matrix(0.774557,0,0,0.77345,23.2024,-78.5109)">



			<text id="text449" transform="matrix(1.2929 0 0 1.2929 431.5148 148.6471)" fill="#2B2828" font-family="'MyriadPro-Regular'" font-size="12.0506">F8</text>

	</g>

	<g id="g451" transform="matrix(0.774557,0,0,0.77345,66.7503,-78.5109)">



			<text id="text453" transform="matrix(1.2929 0 0 1.2929 442.6754 148.6471)" fill="#2B2828" font-family="'MyriadPro-Regular'" font-size="12.0506">F9</text>

	</g>

	<g id="g455" transform="matrix(0.774557,0,0,0.77345,93.4728,-78.5109)">



			<text id="text457" transform="matrix(1.2929 0 0 1.2929 449.5236 148.6471)" fill="#2B2828" font-family="'MyriadPro-Regular'" font-size="12.0506">F10</text>

	</g>

	<g id="g459" transform="matrix(0.774557,0,0,0.77345,124.154,-78.5109)">



			<text id="text461" transform="matrix(1.2929 0 0 1.2929 457.3865 148.6471)" fill="#2B2828" font-family="'MyriadPro-Regular'" font-size="12.0506">F11</text>

	</g>

	<g id="g463" transform="matrix(0.774557,0,0,0.77345,152.856,-78.5109)">



			<text id="text465" transform="matrix(1.2929 0 0 1.2929 464.741 148.6471)" fill="#2B2828" font-family="'MyriadPro-Regular'" font-size="12.0506">F12</text>

	</g>

	<g id="g467" transform="matrix(0.774557,0,0,0.77345,-258.87,-79.4993)">



			<text id="text469" transform="matrix(1.2929 0 0 1.2929 359.2263 148.3948)" fill="#2B2828" font-family="'MyriadPro-Regular'" font-size="8.3427">Esc</text>

	</g>

	<g id="g507" transform="matrix(0.774557,0,0,0.77345,-233.137,-31.0719)">



			<text id="text509" transform="matrix(1.2929 0 0 1.2929 365.8208 160.8229)" fill="#2B2828" font-family="'MyriadPro-Regular'" font-size="11.1236">1</text>

	</g>

	<g id="g511" transform="matrix(0.774557,0,0,0.77345,-204.435,-31.0719)">



			<text id="text513" transform="matrix(1.2929 0 0 1.2929 373.1765 160.8229)" fill="#2B2828" font-family="'MyriadPro-Regular'" font-size="11.1236">2</text>

	</g>

	<g id="g515" transform="matrix(0.774557,0,0,0.77345,-174.743,-31.0719)">



			<text id="text517" transform="matrix(1.2929 0 0 1.2929 380.7859 160.8229)" fill="#2B2828" font-family="'MyriadPro-Regular'" font-size="11.1236">3</text>

	</g>

	<g id="g519" transform="matrix(0.774557,0,0,0.77345,-145.051,-31.0719)">



			<text id="text521" transform="matrix(1.2929 0 0 1.2929 388.3959 160.8229)" fill="#2B2828" font-family="'MyriadPro-Regular'" font-size="11.1236">4</text>

	</g>

	<g id="g523" transform="matrix(0.774557,0,0,0.77345,-114.37,-31.0719)">



			<text id="text525" transform="matrix(1.2929 0 0 1.2929 396.2591 160.8229)" fill="#2B2828" font-family="'MyriadPro-Regular'" font-size="11.1236">5</text>

	</g>

	<g id="g527" transform="matrix(0.774557,0,0,0.77345,-84.6778,-31.0719)">



			<text id="text529" transform="matrix(1.2929 0 0 1.2929 403.8683 160.8229)" fill="#2B2828" font-family="'MyriadPro-Regular'" font-size="11.1236">6</text>

	</g>

	<g id="g531" transform="matrix(0.774557,0,0,0.77345,-54.986,-31.0719)">



			<text id="text533" transform="matrix(1.2929 0 0 1.2929 411.4767 160.8229)" fill="#2B2828" font-family="'MyriadPro-Regular'" font-size="11.1236">7</text>

	</g>

	<g id="g535" transform="matrix(0.774557,0,0,0.77345,-26.2841,-31.0719)">



			<text id="text537" transform="matrix(1.2929 0 0 1.2929 418.8325 160.8229)" fill="#2B2828" font-family="'MyriadPro-Regular'" font-size="11.1236">8</text>

	</g>

	<g id="g539" transform="matrix(0.774557,0,0,0.77345,3.40774,-31.0719)">



			<text id="text541" transform="matrix(1.2929 0 0 1.2929 426.4421 160.8229)" fill="#2B2828" font-family="'MyriadPro-Regular'" font-size="11.1236">9</text>

	</g>

	<g id="g543" transform="matrix(0.774557,0,0,0.77345,34.0895,-31.0719)">



			<text id="text545" transform="matrix(1.2929 0 0 1.2929 434.3069 160.8229)" fill="#2B2828" font-family="'MyriadPro-Regular'" font-size="11.1236">0</text>

	</g>

	<path id="path547" fill="none" d="M532.387,79.616h-13.184"/>

	<path id="path551" fill="#9780AA" d="M449.69,186.282c-1.199,0-2.396-1.197-2.396-3.594v-20.375c0-1.199,1.197-3.596,2.396-3.596

		h87.49c2.396,0,3.596,2.396,3.596,3.596v20.375c0,2.396-1.197,3.594-3.596,3.594H449.69z"/>

	<path id="path553" fill="#9780AA" d="M492.836,128.755h-20.375c-2.396,0-3.596,1.199-3.596,2.396v22.771

		c0,1.199,1.199,2.398,3.596,2.398h64.721c2.396,0,3.596-1.199,3.596-2.398v-52.734c0-2.396-1.199-3.595-3.596-3.595h-37.152

		c-2.396,0-3.596,1.199-3.596,3.595v23.971C496.432,127.556,496.432,128.755,492.836,128.755L492.836,128.755z"/>

	<path id="path555" fill="none" d="M518.002,107.181v13.184H506.02"/>

	<path id="path559" fill="#9780AA" d="M497.631,188.681h39.551c2.396,0,3.596,1.197,3.596,3.594v21.576

		c0,2.395-1.199,3.594-3.596,3.594h-39.551c-2.396,0-3.598-1.199-3.598-3.594v-21.576

		C494.033,189.878,495.232,188.681,497.631,188.681z"/>

	<path id="path561" fill="#9780AA" d="M14.636,186.282c-1.199,0-3.597-1.197-3.597-3.594c0-5.994,0-13.185,0-20.375

		c0-1.199,2.397-3.596,3.597-3.596c17.977,0,49.137,0,68.314,0c1.198,0,2.396,2.396,2.396,3.596c0,7.19,0,14.381,0,20.375

		c0,2.396-1.198,3.594-2.396,3.594C63.773,186.282,32.613,186.282,14.636,186.282z"/>

	<path id="path563" fill="#9780AA" d="M14.636,188.681h35.953c1.199,0,2.396,1.197,2.396,3.594v21.576

		c0,2.395-1.197,3.594-2.396,3.594H14.636c-2.398,0-3.597-1.199-3.597-3.594v-21.576C11.04,189.878,12.238,188.681,14.636,188.681z"

		/>

	<path id="path565" fill="#9780AA" d="M62.575,188.681h22.772c2.397,0,3.595,1.197,3.595,3.594v21.576

		c0,1.199-1.197,3.594-3.595,3.594H62.575c-1.197,0-3.595-2.395-3.595-3.594v-21.576C58.98,189.878,61.377,188.681,62.575,188.681z"

		/>

	<path id="path567" fill="#9780AA" d="M97.332,188.681h29.964c1.197,0,2.396,1.197,2.396,3.594v21.576

		c0,1.199-1.198,3.594-2.396,3.594H97.332c-1.198,0-2.396-2.395-2.396-3.594v-21.576C94.935,189.878,96.133,188.681,97.332,188.681z

		"/>

	<g id="g569" transform="matrix(0.774557,0,0,0.77345,150.877,63.8059)">



			<text id="text571" transform="matrix(1.2929 0 0 1.2929 464.2346 185.1738)" fill="#2B2828" font-family="'MyriadPro-Regular'" font-size="8.3427">Ctrl</text>

	</g>

	<g id="g573" transform="matrix(0.774557,0,0,0.77345,-252.932,63.8059)">



			<text id="text575" transform="matrix(1.2929 0 0 1.2929 360.7492 185.175)" fill="#2B2828" font-family="'MyriadPro-Regular'" font-size="8.3427">Ctrl</text>

	</g>

	<g id="g577" transform="matrix(0.774557,0,0,0.77345,-185.63,62.8175)">



			<text id="text579" transform="matrix(1.2929 0 0 1.2929 377.9966 184.9201)" fill="#2B2828" font-family="'MyriadPro-Regular'" font-size="8.3427">Alt</text>

	</g>

	<g id="g581" transform="matrix(0.774557,0,0,0.77345,3.40774,-45.8965)">



			<text id="text583" transform="matrix(1.2929 0 0 1.2929 426.4421 159.4163)" fill="#2B2828" font-family="'MyriadPro-Regular'" font-size="11.1236">(</text>

	</g>

	<g id="g585" transform="matrix(0.774557,0,0,0.77345,34.0895,-45.8965)">



			<text id="text587" transform="matrix(1.2929 0 0 1.2929 434.3068 159.4163)" fill="#2B2828" font-family="'MyriadPro-Regular'" font-size="11.1236">)</text>

	</g>

	<g id="g589" transform="matrix(0.774557,0,0,0.77345,-25.2942,-45.8965)">



			<text id="text591" transform="matrix(1.2929 0 0 1.2929 419.0863 159.4163)" fill="#2B2828" font-family="'MyriadPro-Regular'" font-size="11.1236">*</text>

	</g>

	<g id="g593" transform="matrix(0.774557,0,0,0.77345,-55.9759,-44.9081)">



			<text id="text595" transform="matrix(1.2929 0 0 1.2929 411.2228 157.2723)" fill="#2B2828" font-family="'MyriadPro-Regular'" font-size="11.1236">&amp;</text>

	</g>

	<g id="g597" transform="matrix(0.774557,0,0,0.77345,-84.6778,-44.9081)">



			<text id="text599" transform="matrix(1.2929 0 0 1.2929 403.8682 157.2723)" fill="#2B2828" font-family="'MyriadPro-Regular'" font-size="11.1236">^</text>

	</g>

	<g id="g601" transform="matrix(0.774557,0,0,0.77345,-115.36,-44.9081)">



			<text id="text603" transform="matrix(1.2929 0 0 1.2929 396.0053 157.2725)" fill="#2B2828" font-family="'MyriadPro-Regular'" font-size="11.1236">%</text>

	</g>

	<g id="g605" transform="matrix(0.774557,0,0,0.77345,-145.051,-44.9081)">



			<text id="text607" transform="matrix(1.2929 0 0 1.2929 388.3958 157.2725)" fill="#2B2828" font-family="'MyriadPro-Regular'" font-size="11.1236">$</text>

	</g>

	<g id="g609" transform="matrix(0.774557,0,0,0.77345,-174.743,-44.9081)">



			<text id="text611" transform="matrix(1.2929 0 0 1.2929 380.7857 157.2726)" fill="#2B2828" font-family="'MyriadPro-Regular'" font-size="11.1236">#</text>

	</g>

	<g id="g613" transform="matrix(0.774557,0,0,0.77345,-205.425,-44.9081)">



			<text id="text615" transform="matrix(1.2929 0 0 1.2929 372.9226 157.2727)" fill="#2B2828" font-family="'MyriadPro-Regular'" font-size="11.1236">@</text>

	</g>

	<g id="g617" transform="matrix(0.774557,0,0,0.77345,-233.137,-44.9081)">



			<text id="text619" transform="matrix(1.2929 0 0 1.2929 365.8212 157.2728)" fill="#2B2828" font-family="'MyriadPro-Regular'" font-size="11.1236">!</text>

	</g>

	<g id="g621" transform="matrix(0.774557,0,0,0.77345,-242.045,38.11)">



			<text id="text623" transform="matrix(1.2929 0 0 1.2929 363.5383 178.5805)" fill="#2B2828" font-family="'MyriadPro-Regular'" font-size="8.3427">Shift</text>

	</g>

	<path id="path625" fill="none" d="M23.025,164.711l-4.793,4.794h2.396v9.587h5.992v-9.587h2.396L23.025,164.711z"/>

	<g id="g627" transform="matrix(0.774557,0,0,0.77345,130.092,38.11)">



			<text id="text629" transform="matrix(1.2929 0 0 1.2929 458.9074 178.5805)" fill="#2B2828" font-family="'MyriadPro-Regular'" font-size="8.3427">Shift</text>

	</g>

	<path id="path631" fill="none" d="M458.08,164.711l-4.795,4.794h2.396v9.587h4.795v-9.587h2.395L458.08,164.711z"/>

	<g id="g633" transform="matrix(0.774557,0,0,0.77345,-262.829,-30.0835)">



			<text id="text635" transform="matrix(1.2929 0 0 1.2929 358.2124 161.0784)" fill="#2B2828" font-family="'MyriadPro-Regular'" font-size="11.1236">`</text>

	</g>

	<g id="g637" transform="matrix(0.774557,0,0,0.77345,-263.819,-44.9081)">



			<text id="text639" transform="matrix(1.2929 0 0 1.2929 357.9587 157.2728)" fill="#2B2828" font-family="'MyriadPro-Regular'" font-size="11.1236">~</text>

	</g>

	<g id="g641" transform="matrix(0.774557,0,0,0.77345,-262.829,-18.2238)">



			<text id="text643" transform="matrix(1.2929 0 0 1.2929 358.2124 164.1223)" fill="#2B2828" font-family="'MyriadPro-Regular'" font-size="8.3427">Tab</text>

	</g>

	<g id="g645" transform="matrix(0.774557,0,0,0.77345,-247.983,8.46086)">



			<text id="text647" transform="matrix(1.2929 0 0 1.2929 362.0158 170.9694)" fill="#2B2828" font-family="'MyriadPro-Regular'" font-size="8.3427">Caps</text>

	</g>

	<g id="g649" transform="matrix(0.774557,0,0,0.77345,-247.983,16.3673)">



			<text id="text651" transform="matrix(1.2929 0 0 1.2929 362.0158 172.9988)" fill="#2B2828" font-family="'MyriadPro-Regular'" font-size="8.3427">Lock</text>

	</g>

	<g id="g653" transform="matrix(0.774557,0,0,0.77345,62.7914,-31.0719)">



			<text id="text655" transform="matrix(1.2929 0 0 1.2929 441.6612 160.825)" fill="#2B2828" font-family="'MyriadPro-Regular'" font-size="11.1236">-</text>

	</g>

	<g id="g657" transform="matrix(0.774557,0,0,0.77345,62.7914,-45.8965)">



			<text id="text659" transform="matrix(1.2929 0 0 1.2929 441.6612 157.0194)" fill="#2B2828" font-family="'MyriadPro-Regular'" font-size="11.1236">_</text>

	</g>

	<g id="g661" transform="matrix(0.774557,0,0,0.77345,92.4829,-31.0719)">



			<text id="text663" transform="matrix(1.2929 0 0 1.2929 449.2707 160.8251)" fill="#2B2828" font-family="'MyriadPro-Regular'" font-size="11.1236">=</text>

	</g>

	<g id="g665" transform="matrix(0.774557,0,0,0.77345,92.4829,-45.8965)">



			<text id="text667" transform="matrix(1.2929 0 0 1.2929 449.2707 157.0195)" fill="#2B2828" font-family="'MyriadPro-Regular'" font-size="11.1236">+</text>

	</g>

	<g id="g669" transform="matrix(0.774557,0,0,0.77345,123.165,-31.0719)">



			<text id="text671" transform="matrix(1.2929 0 0 1.2929 457.1324 160.8251)" fill="#2B2828" font-family="'MyriadPro-Regular'" font-size="11.1236">\</text>

	</g>

	<g id="g673" transform="matrix(0.774557,0,0,0.77345,123.165,-45.8965)">



			<text id="text675" transform="matrix(1.2929 0 0 1.2929 457.1324 159.4172)" fill="#2B2828" font-family="'MyriadPro-Regular'" font-size="11.1236">|</text>

	</g>

	<g id="g677" transform="matrix(0.774557,0,0,0.77345,82.5861,-6.36408)">



			<text id="text679" transform="matrix(1.2929 0 0 1.2929 446.7337 167.1686)" fill="#2B2828" font-family="'MyriadPro-Regular'" font-size="11.1236">[</text>

	</g>

	<g id="g681" transform="matrix(0.774557,0,0,0.77345,81.5962,-19.2122)">



			<text id="text683" transform="matrix(1.2929 0 0 1.2929 446.4799 163.8701)" fill="#2B2828" font-family="'MyriadPro-Regular'" font-size="11.1236">{</text>

	</g>

	<g id="g685" transform="matrix(0.774557,0,0,0.77345,111.288,-6.36408)">



			<text id="text687" transform="matrix(1.2929 0 0 1.2929 454.0889 167.1686)" fill="#2B2828" font-family="'MyriadPro-Regular'" font-size="11.1236">]</text>

	</g>

	<g id="g689" transform="matrix(0.774557,0,0,0.77345,111.288,-19.2122)">



			<text id="text691" transform="matrix(1.2929 0 0 1.2929 454.0889 163.8701)" fill="#2B2828" font-family="'MyriadPro-Regular'" font-size="11.1236">}</text>

	</g>

	<g id="g693" transform="matrix(0.774557,0,0,0.77345,59.8224,18.3438)">



			<text id="text695" transform="matrix(1.2929 0 0 1.2929 440.9013 173.5078)" fill="#2B2828" font-family="'MyriadPro-Regular'" font-size="11.1236">;</text>

	</g>

	<g id="g697" transform="matrix(0.774557,0,0,0.77345,59.8224,5.49565)">



			<text id="text699" transform="matrix(1.2929 0 0 1.2929 440.9013 170.2124)" fill="#2B2828" font-family="'MyriadPro-Regular'" font-size="11.1236">:</text>

	</g>

	<g id="g701" transform="matrix(0.774557,0,0,0.77345,89.5139,19.3322)">



			<text id="text703" transform="matrix(1.2929 0 0 1.2929 448.5082 173.7615)" fill="#2B2828" font-family="'MyriadPro-Regular'" font-size="11.1236">&apos;</text>

	</g>

	<g id="g705" transform="matrix(0.774557,0,0,0.77345,88.524,6.48405)">



			<text id="text707" transform="matrix(1.2929 0 0 1.2929 448.2556 170.4649)" fill="#2B2828" font-family="'MyriadPro-Regular'" font-size="11.1236">&quot;</text>

	</g>

	<g id="g709" transform="matrix(0.774557,0,0,0.77345,70.7091,45.0281)">



			<text id="text711" transform="matrix(1.2929 0 0 1.2929 443.689 180.3574)" fill="#2B2828" font-family="'MyriadPro-Regular'" font-size="11.1236">/</text>

	</g>

	<g id="g713" transform="matrix(0.774557,0,0,0.77345,70.7091,32.1803)">



			<text id="text715" transform="matrix(1.2929 0 0 1.2929 443.689 177.0609)" fill="#2B2828" font-family="'MyriadPro-Regular'" font-size="11.1236">?</text>

	</g>

	<g id="g717" transform="matrix(0.774557,0,0,0.77345,42.0072,45.0281)">



			<text id="text719" transform="matrix(1.2929 0 0 1.2929 436.3356 180.3574)" fill="#2B2828" font-family="'MyriadPro-Regular'" font-size="11.1236">.</text>

	</g>

	<g id="g721" transform="matrix(0.774557,0,0,0.77345,41.0173,32.1803)">



			<text id="text723" transform="matrix(1.2929 0 0 1.2929 436.0805 177.0609)" fill="#2B2828" font-family="'MyriadPro-Regular'" font-size="11.1236">&gt;</text>

	</g>

	<g id="g725" transform="matrix(0.774557,0,0,0.77345,11.3255,45.0281)">



			<text id="text727" transform="matrix(1.2929 0 0 1.2929 428.4708 180.3574)" fill="#2B2828" font-family="'MyriadPro-Regular'" font-size="11.1236">,</text>

	</g>

	<g id="g729" transform="matrix(0.774557,0,0,0.77345,10.3359,32.1803)">



			<text id="text731" transform="matrix(1.2929 0 0 1.2929 428.2166 177.0609)" fill="#2B2828" font-family="'MyriadPro-Regular'" font-size="11.1236">&lt;</text>

	</g>

	<path id="path865" fill="#9780AA" d="M384.971,188.686h28.763c1.199,0,2.398,1.196,2.398,3.594v21.574

		c0,1.199-1.199,3.596-2.398,3.596h-28.763c-1.199,0-2.397-2.396-2.397-3.596v-21.574

		C382.574,189.882,383.772,188.686,384.971,188.686z"/>

	<g id="g867" transform="matrix(0.774557,0,0,0.77345,49.697,62.8175)">



			<text id="text869" transform="matrix(1.2929 0 0 1.2929 438.3058 184.9225)" fill="#2B2828" font-family="'MyriadPro-Regular'" font-size="8.3427">Alt Gr</text>

	</g>

	<g id="g11615">

		<path fill="#2B2828" d="M-41.694-48.311"/>

		<path id="path10716" fill="#2B2828" stroke="#2B2828" stroke-width="1.2" d="M41.939,105.292l4.148-2.397v4.795L41.939,105.292z"

			/>

		<path id="path4208" fill="#2B2828" stroke="#2B2828" stroke-width="1.2" d="M44.707,105.292"/>

		<path id="path5410" fill="#2B2828" stroke="#2B2828" stroke-width="1.2004" d="M41.106,102.893v4.799"/>

	</g>

	<g id="g11619">

		<path fill="#2B2828" stroke="#2B2828" stroke-width="1.2004" d="M-41.694-48.311"/>

		<path id="path10719" fill="#2B2828" stroke="#2B2828" stroke-width="1.2" d="M55.873,114.893l-4.149,2.396v-4.795L55.873,114.893z

			"/>

		<path id="path4208-0" fill="#2B2828" stroke="#2B2828" stroke-width="1.2" d="M53.106,114.893"/>

		<path id="path5410-9" fill="#2B2828" stroke="#2B2828" stroke-width="1.2004" d="M56.707,112.492v4.8"/>

	</g>

	<path fill="#2B2828" d="M115.31,27.09"/>

	<path id="path3528" fill="#2B2828" d="M495.535,137.692l4.152-2.399v4.8L495.535,137.692z"/>

	<path id="path6545" fill="#2B2828" d="M498.303,137.692"/>

	<path fill="#2B2828" d="M115.31,27.09"/>

	<path id="path11856_17_" fill="#2B2828" stroke="#2B2828" stroke-width="1.2" d="M630.305,210.135l-2.398-4.152h4.799

		L630.305,210.135z"/>

	<path id="path11623" fill="#2B2828" stroke="#2B2828" stroke-width="1.2" d="M630.305,207.363"/>

	<path fill="#2B2828" d="M115.31,27.09"/>

	<path id="path11856_16_" fill="#2B2828" stroke="#2B2828" stroke-width="1.2" d="M585.535,203.692l4.152-2.399v4.801

		L585.535,203.692z"/>

	<path id="path11623-1" fill="#2B2828" stroke="#2B2828" stroke-width="1.2" d="M588.305,203.692"/>

	<path fill="#2B2828" d="M115.31,27.09"/>

	<path id="path11856_15_" fill="#2B2828" stroke="#2B2828" stroke-width="1.2" d="M675.074,203.692l-4.15,2.4v-4.801

		L675.074,203.692z"/>

	<path id="path11623-1-7" fill="#2B2828" stroke="#2B2828" stroke-width="1.2" d="M672.305,203.692"/>

	<path fill="#2B2828" d="M115.31,27.09"/>

	<path id="path11856_14_" fill="#2B2828" stroke="#2B2828" stroke-width="1.2" d="M630.305,164.922l2.4,4.152h-4.801

		L630.305,164.922z"/>

	<path id="path11623-2" fill="#2B2828" stroke="#2B2828" stroke-width="1.2" d="M630.305,167.692"/>

	<path fill="#2B2828" d="M115.31,27.09"/>

	<path fill="#2B2828" d="M115.31,27.09"/>

	<path fill="#2B2828" d="M115.31,27.09"/>

	<path fill="#2B2828" d="M115.31,27.09"/>

	<path fill="#2B2828" d="M115.31,27.09"/>

	<path id="path11856_9_" fill="#2B2828" d="M513.535,80.636l4.152-2.399v4.799L513.535,80.636z"/>

	<path id="path11623-1-0" fill="#2B2828" d="M516.303,80.636"/>

	<rect x="606.305" y="276.893" fill="none" width="283.199" height="127.199"/>

	<rect x="11.106" y="273.29" fill="none" width="878.398" height="130.802"/>



	<text id="helptext__" transform="matrix(1 0 0 1 5.3119 241.8331)"
        fill="#FFFFFF" font-family="'MyriadPro-Regular'"
        font-size="16.8">
      Scroll over a key to show info here.
  </text>

	<script  type="text/javascript">

		 <![CDATA[
  function text(text) {
    var helpbox = document.getElementById("helptext__");
    helpbox.textContent = text;
  }
  var helptexts = {
    // Add values here to add help-texts. No HTML allowed.
    // A single line must be used - SVG is börk with multiline strings
    // "svg entity ID": "text on mouse over",
    // Omit comma if it's the last one in the list.
    "path41":  "Q: Quits TPT.",
    "path43":  "W: Sets Gravity Mode (Radial, Vertical, None). Makes STK2 jump, Ctrl+W to override.",
    "path45":  "E: Opens the Element Search menu.",
    "path47":  "R: Records TPT frames. When about to place stamp, Ctrl+R: Rotate stamp clockwise. Ctrl+Shift+R: Flip stamp",
    "path51":  "Y: Set air mode (No Update, Pressure/Velocity Only, On, Off)",
    "path53":  "U: Toggle Ambient Heat mode.",
    "path55":  "I: Invert all pressure. Ctrl+I: Install TPT (ptsave: links, .cps and .stm file types)",
    "path59":  "P: Single screenshot as PNG. Saved next to Powder.exe as image-xxxx.png",
    "path61":  "[: Decreases brush size.",
    "path63":  "]: Increases brush size.",
    "path65":  "A: Moves STK2 to the left if he exists.",
    "path67":  "S: Creates a stamp. Left click to select, right click to cancel. Makes STK2 spew his element, Ctrl+S to override",
    "path69":  "D: Enables Debug View. Useful even while not debugging. Makes STK2 move right, Ctrl+D to override",
    "path71":  "F: Pauses and then updates for one frame. Useful for exploring GOL.",
    "path73":  "G: Enables the grid or makes the grid size larger. Ctrl+G: Disables the grid or makes grid smaller.",
    "path75":  "H: Show/Hide HUD. Doesn't hide menus. Ctrl+H: Show help text.",
    "path79":  "K: Show stamp browser.",
    "path81":  "L: Load last used stamp.",
	"path83":  ";: Toggle replace mode. Ctrl+;: Toggle specific delete mode.",
    "path87":  "Hold Z: Show zoom window around mouse. Hold Z + Click: Place zoom window. Ctrl+Z: Undo.",
    "path89":  "Ctrl+X: Copy save area + delete underneath",
    "path91":  "Ctrl+C: Copy save area",
    "path195": "Ctrl+V: Paste previously copied save area",
    "path93":  "B: Enable Decorations and show decoration menu. Ctrl+B: Toggle Decoration Mode.",
    "path11":  "~: Show Developer console",
    "path13":  "1: Set Viewing Mode to Velocity Display. Shift+1: Set Viewing Mode to Life Display",
    "path15":  "2: Set Viewing Mode to Pressure Display - the more pressure, the redder",
    "path17":  "3: Set Viewing Mode to Persistent Display - trails are shown",
    "path19":  "4: Set Viewing Mode to Fire Display - some elements glow",
    "path21":  "5: Set Viewing Mode to Blob Display - everything's a blur",
    "path23":  "6: Set Viewing Mode to Heat Display - heat makes elements redder",
    "path27":  "7: Set Viewing Mode to Nothing Display - everything is basic",
    "path25":  "8: Set Viewing Mode to Fancy Display - every effect ever",
    "path29":  "9: Set Viewing Mode to Heat Gradient display - trippy gradients for heat deltas",
    "path31":  "0: Set Viewing Mode to Alt Velocity Display - pressure is red, velocity is white",
    "path35":  "=: Reset pressure. Ctrl+=: Reset sparks.",
    "path185": "Space: Pause/Unpause simulation",
    "path105": "Esc: Quits TPT.",
    "path107": "F1: Help text (the same that shows up when you first open TPT)",
    "path149": "Left Arrow: Moves STKM left. Nudges stamps 1 px to the left.",
    "path151": "Down Arrow: Makes STKM spew its element. Nudges stamps 1 px downward.",
    "path153": "Right Arrow: Moves STKM right. Nudges stamps 1 px to the right.",
    "path155": "Up Arrow: Makes STKM jump. Nudges stamps 1 px upward.",
    "path197": "Tab: Changes Brush shape (Triangle, Square/Rectangle, Circle/Ellipse)",
    "path97":  "M: Does absolutely nothing. Promise.",
	"path95":  "N: Toggle Newtonian gravity mode."

  }

  for (var key in helptexts) {
    var svgel = document.getElementById(key);
    if (!svgel)
      continue;
    svgel.setAttribute("fill", "#7A5D8E");
    svgel.onmouseover = function(evt) {
      evt.target.setAttribute("fill", "#9A67BD");
      text(helptexts[evt.target.id]);
    }
    svgel.onmouseout = function(evt) {
      evt.target.setAttribute("fill", "#7A5D8E");
    }
  }
	//

			// ]]>

	</script>

</g>

</svg>

