<?xml version="1.0" encoding="utf-8"?>
<!DOCTYPE svg PUBLIC "-//W3C//DTD SVG 20010904//EN" "http://www.w3.org/TR/2001/REC-SVG-20010904/DTD/svg10.dtd">
<svg xmlns="http://www.w3.org/2000/svg" xml:space="preserve" xmlns:xlink="http://www.w3.org/1999/xlink" width="420" height="420" viewBox="0 0 420 420">
<desc></desc>
<rect width="420" height="420" fill="#ffffff" cx="0" cy="0" />
<defs>
<rect id="p" width="12" height="12" />
</defs>
<g fill="#000000">
<path d="M12 12 L96 12 L96 96 L12 96 Z M108 12 L120 12 L120 24 L132 24 L132 12 L144 12 L144 36 L120 36 L120 108 L144 108 L144 144 L192 144 L192 132 L204 132 L204 120 L120 120 L120 132 L156 132 L156 108 L180 108 L180 48 L168 48 L168 96 L156 96 L156 84 L144 84 L144 96 L132 96 L132 60 L240 60 L240 24 L228 24 L228 12 L264 12 L264 24 L252 24 L252 36 L228 36 L228 48 L252 48 L252 60 L264 60 L264 108 L276 108 L276 144 L300 144 L300 192 L288 192 L288 132 L300 132 L300 120 L312 120 L312 144 L324 144 L324 132 L348 132 L348 144 L336 144 L336 120 L348 120 L348 108 L300 108 L300 84 L312 84 L312 96 L288 96 L288 84 L252 84 L252 132 L264 132 L264 120 L240 120 L240 132 L216 132 L216 144 L240 144 L240 192 L228 192 L228 204 L240 204 L240 216 L264 216 L264 168 L312 168 L312 156 L228 156 L228 180 L216 180 L216 192 L192 192 L192 180 L204 180 L204 240 L252 240 L252 264 L228 264 L228 216 L216 216 L216 288 L228 288 L228 300 L288 300 L288 264 L300 264 L300 252 L288 252 L288 240 L336 240 L336 156 L360 156 L360 144 L372 144 L372 132 L408 132 L408 108 L372 108 L372 120 L396 120 L396 144 L408 144 L408 156 L372 156 L372 168 L384 168 L384 180 L408 180 L408 168 L396 168 L396 192 L384 192 L384 204 L360 204 L360 216 L324 216 L324 276 L372 276 L372 252 L384 252 L384 240 L396 240 L396 228 L408 228 L408 216 L384 216 L384 228 L372 228 L372 240 L360 240 L360 252 L336 252 L336 288 L348 288 L348 300 L300 300 L300 288 L276 288 L276 336 L288 336 L288 324 L300 324 L300 312 L264 312 L264 288 L252 288 L252 276 L240 276 L240 324 L264 324 L264 336 L252 336 L252 372 L264 372 L264 384 L252 384 L252 408 L240 408 L240 396 L264 396 L264 408 L276 408 L276 396 L312 396 L312 360 L300 360 L300 348 L276 348 L276 360 L288 360 L288 372 L300 372 L300 384 L288 384 L288 408 L324 408 L324 396 L348 396 L348 384 L336 384 L336 372 L324 372 L324 360 L348 360 L348 372 L360 372 L360 348 L384 348 L384 372 L372 372 L372 360 L396 360 L396 372 L408 372 L408 336 L396 336 L396 324 L408 324 L408 300 L396 300 L396 252 L408 252 L408 276 L384 276 L384 264 L312 264 L312 276 L276 276 L276 264 L264 264 L264 228 L276 228 L276 252 L240 252 L240 228 L180 228 L180 252 L192 252 L192 300 L168 300 L168 336 L180 336 L180 324 L132 324 L132 312 L72 312 L72 288 L60 288 L60 276 L24 276 L24 312 L12 312 L12 264 L36 264 L36 312 L60 312 L60 300 L48 300 L48 264 L96 264 L96 300 L84 300 L84 288 L120 288 L120 240 L144 240 L144 252 L132 252 L132 264 L168 264 L168 288 L132 288 L132 276 L72 276 L72 252 L108 252 L108 324 L120 324 L120 300 L156 300 L156 192 L180 192 L180 168 L168 168 L168 156 L156 156 L156 180 L144 180 L144 168 L120 168 L120 180 L72 180 L72 168 L48 168 L48 180 L24 180 L24 120 L12 120 L12 168 L36 168 L36 204 L24 204 L24 216 L12 216 L12 240 L24 240 L24 228 L60 228 L60 252 L36 252 L36 216 L72 216 L72 192 L120 192 L120 228 L168 228 L168 240 L192 240 L192 216 L180 216 L180 204 L132 204 L132 192 L144 192 L144 216 L108 216 L108 228 L72 228 L72 240 L48 240 L48 192 L60 192 L60 132 L48 132 L48 144 L36 144 L36 156 L96 156 L96 204 L84 204 L84 168 L108 168 L108 156 L132 156 L132 144 L84 144 L84 132 L96 132 L96 108 L84 108 L84 120 L108 120 L108 72 L144 72 L144 48 L108 48 Z M204 12 L216 12 L216 48 L192 48 L192 24 L180 24 L180 36 L168 36 L168 24 L156 24 L156 72 L192 72 L192 108 L204 108 L204 84 L228 84 L228 108 L240 108 L240 72 L288 72 L288 60 L300 60 L300 72 L312 72 L312 12 L288 12 L288 36 L300 36 L300 24 L276 24 L276 36 L264 36 L264 48 L276 48 L276 96 L216 96 L216 72 L204 72 Z M324 12 L408 12 L408 96 L324 96 Z M24 24 L84 24 L84 84 L24 84 Z M336 24 L396 24 L396 84 L336 84 Z M36 36 L72 36 L72 72 L36 72 Z M348 36 L384 36 L384 72 L348 72 Z M36 108 L72 108 L72 120 L36 120 Z M204 156 L216 156 L216 168 L204 168 Z M324 168 L360 168 L360 180 L276 180 L276 192 L252 192 L252 204 L312 204 L312 192 L348 192 L348 204 L324 204 Z M84 216 L96 216 L96 240 L84 240 Z M288 216 L312 216 L312 228 L288 228 Z M144 276 L204 276 L204 288 L180 288 L180 312 L216 312 L216 324 L228 324 L228 336 L240 336 L240 348 L228 348 L228 360 L240 360 L240 372 L216 372 L216 360 L204 360 L204 348 L180 348 L180 372 L168 372 L168 384 L204 384 L204 408 L228 408 L228 384 L216 384 L216 396 L192 396 L192 360 L168 360 L168 348 L156 348 L156 360 L120 360 L120 372 L132 372 L132 348 L144 348 L144 396 L120 396 L120 408 L156 408 L156 384 L108 384 L108 348 L120 348 L120 336 L156 336 L156 312 L144 312 Z M360 300 L384 300 L384 312 L372 312 L372 324 L384 324 L384 336 L360 336 Z M312 312 L348 312 L348 348 L312 348 Z M12 324 L96 324 L96 408 L12 408 Z M192 324 L204 324 L204 336 L192 336 Z M324 324 L336 324 L336 336 L324 336 Z M24 336 L84 336 L84 396 L24 396 Z M36 348 L72 348 L72 384 L36 384 Z M372 384 L384 384 L384 408 L396 408 L396 396 L372 396 Z M168 396 L180 396 L180 408 L168 408 Z" fill-rule="evenodd" />
</g>
</svg>